# xmcd
#
# Track frame offsets:
#	183
#	15978
#	32488
#	52748
#	66670
#	79753
#	92378
#	109003
#	123895
#	137665
#	152623
#	167963
#	187595
#	199308
#	215950
#	229173
#
# Disc length: 3236 seconds
#
# Revision: 0
# Processed by: cddbd v1.5.2PL0 Copyright (c) Steve Scherf et al.
# Submitted via: audiograbber 1.83.01
#
DISCID=cc0ca210
DTITLE=The Rubettes - The Best Of The Rubettes
DYEAR=1990
DGENRE=Pop/Rock
TTITLE0=Sugar Baby Love
TTITLE1=Tonight
TTITLE2=Under One Roof
TTITLE3=I'm Just Dreaming
TTITLE4=Julia
TTITLE5=Little 69
TTITLE6=Don't Do It Baby
TTITLE7=I Can Do It
TTITLE8=Juke Box Jive
TTITLE9=Little Darling
TTITLE10=Cheri Amour
TTITLE11=Baby I Know
TTITLE12=You're The Reason Why
TTITLE13=Ooh La La
TTITLE14=The Sha Na Na Song
TTITLE15=Foe Dee Oh Dee
EXTD=
EXTT0=
EXTT1=
EXTT2=
EXTT3=
EXTT4=
EXTT5=
EXTT6=
EXTT7=
EXTT8=
EXTT9=
EXTT10=
EXTT11=
EXTT12=
EXTT13=
EXTT14=
EXTT15=
PLAYORDER=
